<svg width="18" height="18" viewBox="0 0 18 18" fill="none" xmlns="http://www.w3.org/2000/svg">
<path d="M9.00093 18C9.99504 18 10.8009 17.1941 10.8009 16.2C10.8009 15.2059 9.99504 14.4 9.00093 14.4C8.00682 14.4 7.20093 15.2059 7.20093 16.2C7.20093 17.1941 8.00682 18 9.00093 18Z" fill="#31314F"/>
<path d="M9.00093 3.6C9.99504 3.6 10.8009 2.79411 10.8009 1.8C10.8009 0.805887 9.99504 0 9.00093 0C8.00682 0 7.20093 0.805887 7.20093 1.8C7.20093 2.79411 8.00682 3.6 9.00093 3.6Z" fill="#31314F"/>
<path d="M3.90962 15.8913C4.90373 15.8913 5.70962 15.0854 5.70962 14.0913C5.70962 13.0972 4.90373 12.2913 3.90962 12.2913C2.91551 12.2913 2.10962 13.0972 2.10962 14.0913C2.10962 15.0854 2.91551 15.8913 3.90962 15.8913Z" fill="#31314F"/>
<path d="M14.0922 5.7087C15.0863 5.7087 15.8922 4.90282 15.8922 3.9087C15.8922 2.91459 15.0863 2.1087 14.0922 2.1087C13.0981 2.1087 12.2922 2.91459 12.2922 3.9087C12.2922 4.90282 13.0981 5.7087 14.0922 5.7087Z" fill="#31314F"/>
<path d="M1.8009 10.8009C2.79551 10.8009 3.6018 9.99461 3.6018 9C3.6018 8.00539 2.79551 7.1991 1.8009 7.1991C0.80629 7.1991 0 8.00539 0 9C0 9.99461 0.80629 10.8009 1.8009 10.8009Z" fill="#31314F"/>
<path d="M16.2009 10.8C17.195 10.8 18.0009 9.99412 18.0009 9.00001C18.0009 8.0059 17.195 7.20001 16.2009 7.20001C15.2068 7.20001 14.4009 8.0059 14.4009 9.00001C14.4009 9.99412 15.2068 10.8 16.2009 10.8Z" fill="#31314F"/>
<path d="M3.90962 5.70959C4.90373 5.70959 5.70962 4.9037 5.70962 3.90959C5.70962 2.91548 4.90373 2.10959 3.90962 2.10959C2.91551 2.10959 2.10962 2.91548 2.10962 3.90959C2.10962 4.9037 2.91551 5.70959 3.90962 5.70959Z" fill="#31314F"/>
<path d="M14.0922 15.8922C15.0863 15.8922 15.8922 15.0863 15.8922 14.0922C15.8922 13.0981 15.0863 12.2922 14.0922 12.2922C13.0981 12.2922 12.2922 13.0981 12.2922 14.0922C12.2922 15.0863 13.0981 15.8922 14.0922 15.8922Z" fill="#31314F"/>
</svg>
