<svg width="23" height="32" viewBox="0 0 23 32" fill="none" xmlns="http://www.w3.org/2000/svg">
<path d="M20.8735 24.7884H2.02493V6.03914C2.02621 4.97474 2.4496 3.9543 3.20225 3.20165C3.9549 2.449 4.97534 2.0256 6.03974 2.02433H16.3457C17.4102 2.02544 18.4308 2.44877 19.1835 3.20144C19.9363 3.9541 20.3598 4.97463 20.3611 6.03914V6.77924C20.3577 6.84854 20.3685 6.91781 20.3927 6.98284C20.4169 7.04787 20.454 7.10731 20.5019 7.15755C20.5498 7.20779 20.6073 7.24779 20.6711 7.27512C20.7349 7.30245 20.8035 7.31654 20.8729 7.31654C20.9423 7.31654 21.011 7.30245 21.0748 7.27512C21.1386 7.24779 21.1961 7.20779 21.244 7.15755C21.2918 7.10731 21.329 7.04787 21.3532 6.98284C21.3774 6.91781 21.3882 6.84854 21.3848 6.77924V6.03914C21.3832 4.70317 20.8518 3.42237 19.9071 2.47769C18.9624 1.53301 17.6816 1.00159 16.3457 1H6.03974C4.70371 1.00159 3.42285 1.53299 2.47808 2.47765C1.53331 3.42231 1.00175 4.70311 1 6.03914V25.9609C1.00175 27.2969 1.53331 28.5777 2.47808 29.5223C3.42285 30.467 4.70371 30.9984 6.03974 31H16.3457C17.6817 30.9986 18.9627 30.4672 19.9075 29.5225C20.8523 28.5778 21.3838 27.2969 21.3854 25.9609V25.2984C21.3849 25.163 21.3308 25.0333 21.2348 24.9377C21.1389 24.8421 21.009 24.7884 20.8735 24.7884ZM20.3611 25.9609C20.3598 27.0254 19.9363 28.0459 19.1835 28.7986C18.4308 29.5512 17.4102 29.9746 16.3457 29.9757H6.03974C4.97534 29.9744 3.9549 29.551 3.20225 28.7984C2.4496 28.0457 2.02621 27.0253 2.02493 25.9609V25.8157H20.3611V25.9609Z" fill="#31314F" stroke="#31314F" stroke-width="0.7"/>
<path d="M9.66439 27.8999H12.7217C12.8532 27.8936 12.9771 27.8369 13.0679 27.7416C13.1587 27.6463 13.2093 27.5197 13.2093 27.3881C13.2093 27.2565 13.1587 27.1299 13.0679 27.0346C12.9771 26.9393 12.8532 26.8826 12.7217 26.8762H9.66439C9.53293 26.8826 9.40896 26.9393 9.31818 27.0346C9.2274 27.1299 9.17676 27.2565 9.17676 27.3881C9.17676 27.5197 9.2274 27.6463 9.31818 27.7416C9.40896 27.8369 9.53293 27.8936 9.66439 27.8999Z" fill="#31314F" stroke="#31314F" stroke-width="0.7"/>
<path d="M21.9725 20.5869H18.7279C18.5964 20.5933 18.4724 20.65 18.3817 20.7453C18.2909 20.8406 18.2402 20.9672 18.2402 21.0988C18.2402 21.2304 18.2909 21.357 18.3817 21.4523C18.4724 21.5475 18.5964 21.6043 18.7279 21.6106H21.9737C22.1051 21.6043 22.2291 21.5475 22.3199 21.4523C22.4107 21.357 22.4613 21.2304 22.4613 21.0988C22.4613 20.9672 22.4107 20.8406 22.3199 20.7453C22.2291 20.65 22.1051 20.5933 21.9737 20.5869H21.9725Z" fill="#31314F" stroke="#31314F" stroke-width="0.7"/>
<path d="M5.53157 5.48333C5.40011 5.48971 5.27615 5.54642 5.18537 5.64171C5.09458 5.73701 5.04395 5.86358 5.04395 5.99519C5.04395 6.12681 5.09458 6.25338 5.18537 6.34867C5.27615 6.44396 5.40011 6.50068 5.53157 6.50706H8.91228C8.98159 6.51042 9.05086 6.49967 9.11589 6.47547C9.18092 6.45126 9.24035 6.4141 9.29059 6.36624C9.34083 6.31838 9.38083 6.26081 9.40816 6.19703C9.43549 6.13325 9.44958 6.06458 9.44958 5.99519C9.44958 5.9258 9.43549 5.85714 9.40816 5.79336C9.38083 5.72958 9.34083 5.67201 9.29059 5.62415C9.24035 5.57629 9.18092 5.53913 9.11589 5.51492C9.05086 5.49071 8.98159 5.47997 8.91228 5.48333H5.53157Z" fill="#31314F" stroke="#31314F" stroke-width="0.7"/>
<circle cx="13.5" cy="14.5" r="4.5" stroke="#31314F" stroke-width="2"/>
</svg>
