<svg xmlns="http://www.w3.org/2000/svg" width="22" height="22" viewBox="0 0 22 22" fill="none"><path fill-rule="evenodd" clip-rule="evenodd" d="M21.583 2.42854C21.7151 2.2966 21.8199 2.13994 21.8914 1.96749C21.963 1.79504 21.9999 1.61019 22 1.42348C22.0001 1.23678 21.9635 1.05188 21.8921 0.879341C21.8208 0.706804 21.7161 0.550009 21.5842 0.417907C21.4523 0.285806 21.2956 0.180986 21.1232 0.109431C20.9507 0.0378765 20.7659 0.000988644 20.5792 0.00087389C20.3925 0.000759136 20.2076 0.0374197 20.035 0.108762C19.8625 0.180105 19.7057 0.284733 19.5736 0.416672L10.9998 8.9906L2.4285 0.416672C2.16172 0.149881 1.79988 -2.8111e-09 1.42258 0C1.04529 2.8111e-09 0.683451 0.149881 0.416665 0.416672C0.149879 0.683462 2.81105e-09 1.04531 0 1.42261C-2.81105e-09 1.79991 0.149879 2.16175 0.416665 2.42854L8.99045 11L0.416665 19.5715C0.284566 19.7036 0.179779 19.8604 0.108288 20.033C0.036796 20.2056 0 20.3906 0 20.5774C0 20.7642 0.036796 20.9492 0.108288 21.1218C0.179779 21.2944 0.284566 21.4512 0.416665 21.5833C0.683451 21.8501 1.04529 22 1.42258 22C1.6094 22 1.79439 21.9632 1.96698 21.8917C2.13958 21.8202 2.2964 21.7154 2.4285 21.5833L10.9998 13.0094L19.5736 21.5833C19.8404 21.8498 20.2021 21.9994 20.5792 21.9991C20.9562 21.9989 21.3178 21.8489 21.5842 21.5821C21.8507 21.3153 22.0002 20.9536 22 20.5765C21.9998 20.1995 21.8498 19.8379 21.583 19.5715L13.0092 11L21.583 2.42854Z" fill="url(#paint0_linear_345_1242)"></path><defs><linearGradient id="paint0_linear_345_1242" x1="11" y1="0" x2="11" y2="22" gradientUnits="userSpaceOnUse"><stop stop-color="#FCC15A"></stop><stop offset="1" stop-color="#FFA200"></stop></linearGradient></defs></svg>