<svg width="18" height="10" viewBox="0 0 18 10" fill="none" xmlns="http://www.w3.org/2000/svg">
<path d="M17.5264 0.444114C17.3773 0.303332 17.2001 0.191641 17.0051 0.115433C16.8101 0.0392265 16.6011 0 16.3899 0C16.1788 0 15.9697 0.0392265 15.7747 0.115433C15.5797 0.191641 15.4026 0.303332 15.2534 0.444114L8.9986 6.33639L2.74377 0.444114C2.44235 0.160165 2.03354 0.000643035 1.60727 0.000643035C1.18099 0.000643035 0.772175 0.160165 0.470755 0.444114C0.169333 0.728064 0 1.11318 0 1.51475C0 1.91631 0.169333 2.30143 0.470755 2.58538L7.87015 9.55589C8.01929 9.69667 8.19643 9.80836 8.39145 9.88457C8.58647 9.96078 8.79553 10 9.00666 10C9.21779 10 9.42684 9.96078 9.62186 9.88457C9.81688 9.80836 9.99403 9.69667 10.1432 9.55589L17.5426 2.58538C18.1551 2.0083 18.1551 1.03638 17.5264 0.444114Z" fill="#757575"/>
</svg>
