<svg width="31" height="29" viewBox="0 0 31 29" fill="none" xmlns="http://www.w3.org/2000/svg">
<path d="M29.9233 21.3585L29.9233 3.90331C29.9233 2.16791 28.506 0.880823 26.7851 1.02544H26.6983C23.6614 1.28575 19.0481 2.83314 16.4739 4.45285L16.2281 4.61192C15.8087 4.87223 15.1146 4.87223 14.6952 4.61192L14.3336 4.395C11.7595 2.78976 7.16066 1.25683 4.12371 1.01098C2.40278 0.866362 1 2.16791 1 3.88884L1 21.3585C1 22.7468 2.12801 24.0484 3.51632 24.2219L3.93571 24.2797C7.07389 24.6991 11.9185 26.2899 14.6952 27.8084L14.753 27.8373C15.1435 28.0542 15.7653 28.0542 16.1413 27.8373C18.918 26.3044 23.7771 24.6991 26.9297 24.2797L27.4069 24.2219C28.7953 24.0484 29.9233 22.7468 29.9233 21.3585Z" stroke="#31314F" stroke-width="2" stroke-linecap="round" stroke-linejoin="round"/>
<path d="M15.4617 5.08923L15.4617 26.7817" stroke="#31314F" stroke-width="2" stroke-linecap="round" stroke-linejoin="round"/>
<path d="M9.31539 9.42773H6.06152" stroke="#31314F" stroke-width="2" stroke-linecap="round" stroke-linejoin="round"/>
<path d="M10.4 13.7662H6.06152" stroke="#31314F" stroke-width="2" stroke-linecap="round" stroke-linejoin="round"/>
</svg>
